<svg width="15" height="17" viewBox="0 0 15 17" fill="none" xmlns="http://www.w3.org/2000/svg">
<path d="M13.5407 8.84038C13.3272 8.71789 13.0937 8.66118 12.8636 8.66385C13.1301 8.04967 12.8975 7.31831 12.3037 6.97758C12.0214 6.81555 11.7033 6.76886 11.404 6.82342C11.3945 6.37099 11.1554 5.93423 10.735 5.69299C10.5247 5.57228 10.2946 5.51532 10.0677 5.51645L11.8159 2.47009C12.1819 1.83226 11.9609 1.016 11.3231 0.64999C10.6853 0.283982 9.86903 0.504972 9.50301 1.14278L5.0626 8.88041C4.979 9.0261 4.84006 9.04581 4.78425 9.04758C4.72844 9.04934 4.5875 9.03789 4.49575 8.89891L3.17186 6.90513C3.05134 6.72337 2.88751 6.57005 2.69835 6.4615C2.023 6.07393 1.1583 6.30808 0.770735 6.98343L0.644046 7.20419C0.598036 7.28436 0.587437 7.37999 0.614439 7.46831L2.16407 12.4977C2.48859 13.5501 3.19333 14.432 4.14845 14.9801L5.9613 16.0204C8.03362 17.2097 10.6873 16.4912 11.8766 14.4189L14.0334 10.6605C14.3995 10.0227 14.1785 9.20638 13.5407 8.84038ZM11.2984 14.087C10.2921 15.8406 8.04673 16.4485 6.29316 15.4422L4.48031 14.4019C3.67225 13.9382 3.07583 13.1921 2.80151 12.3012L1.29435 7.41038L1.34895 7.31525C1.55359 6.95864 2.00995 6.83508 2.36653 7.03971C2.46619 7.0969 2.55281 7.17814 2.61644 7.27396L3.94033 9.26774C4.13317 9.55891 4.45738 9.72508 4.80593 9.71418C5.1548 9.70271 5.46696 9.51517 5.64081 9.21223L10.0812 1.4746C10.2641 1.15586 10.6725 1.04529 10.9913 1.22821C11.31 1.41113 11.4206 1.8195 11.2376 2.13824L8.74896 6.47488C8.65726 6.63469 8.71236 6.83821 8.87216 6.92992C9.03197 7.02163 9.23549 6.96652 9.3272 6.80672L9.49312 6.5176C9.67604 6.19886 10.0844 6.08829 10.4031 6.27121C10.7219 6.45413 10.8325 6.86249 10.6495 7.18124L10.4836 7.47036C10.4833 7.47092 10.483 7.47149 10.4826 7.47206L10.4825 7.47233C10.3926 7.63165 10.4479 7.83417 10.6068 7.92539C10.7666 8.0171 10.9701 7.96199 11.0619 7.80219L11.0645 7.79766C11.2483 7.48246 11.6551 7.37399 11.9719 7.55577C12.2906 7.73869 12.4012 8.14706 12.2183 8.4658L11.7206 9.33313C11.6288 9.49293 11.684 9.69646 11.8438 9.78816C12.0036 9.87987 12.2071 9.82477 12.2988 9.66496C12.4817 9.34622 12.8901 9.23565 13.2088 9.41857C13.5276 9.60149 13.6382 10.0099 13.4552 10.3286L11.2984 14.087Z" fill="black"/>
</svg>
